<svg xmlns="http://www.w3.org/2000/svg" viewBox="0 0 594 466">
  <defs>
    <style>
      .cls-1 {
        fill: #fff;
      }
    </style>
  </defs>
  <title>Asset 1Isolated circuit diagram</title>
  <g id="Layer_2" data-name="Layer 2">
    <g id="Layer_1-2" data-name="Layer 1">
      <g>
        <path class="cls-1" d="M594,466H0V0H594ZM303,425.4c0,.36,0,.72,0,1.08,3.21.85,6.42,2.48,9.62,2.44Q412.26,427.69,512,426c11.62-.21,23.23-1.82,34.83-3,1.46-.14,2.81-1.39,4.21-2.12-.89-1.23-1.76-2.48-2.68-3.69-.69-.91-1.52-1.72-2.16-2.66-5.88-8.64-11.58-17.41-17.62-25.93-5-7.09-9.91-14-11.3-23a26.63,26.63,0,0,0-5-12.26,14.68,14.68,0,0,1-3.43-8.85q-4.5-57.06-9.14-114.11-4.86-60-9.84-120.08c-.32-3.79.49-5.54,4.41-6.71,8.93-2.66,17.64-6,26.44-9.1,3.51-1.23,4.71-3.08,3.61-7.17-4-14.8-7.82-29.65-11-44.63-1.34-6.4-3.09-11.67-9.55-14.32-1-.41-1.66-1.71-2.67-2.21-2-1-4.21-2.57-6.27-2.48-14.82.66-29.62,1.62-44.42,2.58-24.94,1.63-49.89,3.28-74.82,5.11-1.88.14-4.85,1.38-5.23,2.7-1,3.39-3.15,3.31-5.69,3.47-14.3.88-28.62,1.59-42.9,2.8s-14.18,1.43-14.29,15.49c0,2,.51,5.27-.4,5.76-6.21,3.38-2.87,9-3.8,13.6a16.49,16.49,0,0,1-1.49,3.92c-.86,1.77-2.3,3.36-2.73,5.21-1.18,5-1.08,10.52-3.11,15.11-2.79,6.28-2.81,12.58-2.55,19,.18,4.22-.45,7.53-5.25,8.65.5,5.76,1,11.2,1.45,16.65.24,2.95.22,5.59-3.74,6.39-1,.2-2.25,2.44-2.35,3.81-.31,4.15-.17,8.33-.09,12.49.05,2.79.94,4.92,4.36,4.76s4-2.66,3.77-5.26c-.31-3.43-1-6.83-1.67-10.75,5.44,0,5.34-3.55,5.37-7.28.05-5.13-1.09-11,1-15.18a31.07,31.07,0,0,0,3.39-15.16c0-3.38-1.51-7.46,3.33-9.3.54-.2.72-1.79.77-2.76.7-12.59,7.38-24.18,6.24-37.08a6.35,6.35,0,0,1,1-.46q10.22,37,20.36,73.85c-7.54-5.71-13.93-12-23.08-13.86-2.72,5.07,3.26,13-5.13,14.9-.5,4.09-.39,7.82-1.48,11.16a85.22,85.22,0,0,0-4.23,32.35c.18,2.75,1.18,6.18-3.22,7.19-.51.12-.8,2-.85,3.14-.12,3,.18,6-.17,9-.16,1.37-1.15,3.4-2.23,3.76-3.38,1.15-3.42,3.61-3.49,6.38-.17,7.51,1.61,15.4-4.05,21.93a5.39,5.39,0,0,0-.68,2.38q-3.9,19.6-7.76,39.22-7.31,36.75-14.66,73.5c-.27,1.35-.93,3.6-1.7,3.73-4.13.71-3.21,3.81-3.78,6.47-1.48,7-2.7,14.09-5.13,20.75-2.08,5.68-8.67,6.71-10,2-2.22-7.88-12.11-12-10.06-21.62a2.7,2.7,0,0,0-1.12-2.08c-5.22-3.53-6.61-9.29-9-14.57-4.52-9.84-7.14-21.05-17.75-27-.82-.46-1.08-2-1.51-3.09-3.95-9.9-7.78-19.84-11.88-29.67-1.27-3-2.63-6.56-5-8.42-3.16-2.44-3.66-5-3.57-8.48s1.43-7.9-4.32-8.8c-.63-.09-1.11-1.58-1.53-2.48-5.69-12.22-11.22-24.51-17.08-36.65-4.76-9.85-8.74-20.41-15.33-28.9-4.05-5.21-4.86-10.22-6.67-15.78-2.23-6.86-6.53-13.2-10.72-19.22-3.49-5-7.6-9.56-9-15.78-.31-1.35-1.3-3.19-2.42-3.61-5.79-2.14-5.21-6.8-5-11.42.11-2.73.41-5.53-3.85-5.21-3.61.27-7.91-.67-8,4.91q-.24,10.74,0,21.5c0,1.13,1.37,3.21,2.06,3.19,4.73-.12,4.3,3.22,4.49,6.16,1.32,20.28,2.2,40.6,4,60.84,2,22.55,3.88,45.17,10.32,67.07.37,1.26.38,3.28-.37,4.11-4.65,5.14-4.48,11.14-3.79,17.41s.8,12.32,1.62,18.42c1,7.25,1.08,15.06,4,21.46,3.19,6.85,3.79,13.63,4.36,20.68.45,5.48.6,11,.9,16.47.53,10.1,8.31,17.63,18.38,17.45a153.77,153.77,0,0,0,16.9-1.19c3.3-.42,4.07,1.21,4.61,3.75.62,2.95-.77,3.85-3.46,4-24.64,1.14-49.27,2.39-73.91,3.38-1.29,0-2.66-1.87-4-2.88,1.4-1,2.68-2.42,4.22-2.77,3.69-.86,7.65-.75,11.21-1.92,1.77-.58,2.92-3.08,4.36-4.72l-1-1.15c1-.2,1.94-.34,2.89-.61,7.38-2,8.13-3,7.69-10.63q-3.87-66.37-7.77-132.76-2.73-45.91-5.66-91.82c-.11-1.78-.24-3.83-1.14-5.26-5.52-8.77-7-18.65-7.88-28.62-.8-9.29-.71-18.66-1.56-27.94-1.66-18.19-13.55-29-28.22-37.44-1-.6-2.83.13-4.27.18-5.81.22-11.62.63-17.41.45-1.23,0-2.41-2.23-3.61-3.44,1.19-.84,2.32-2.32,3.57-2.42,8.28-.68,16.59-1.09,24.89-1.54.81,0,2.22,0,2.36.37C66.6,63,72.44,62.2,75.8,65c8.67,7.21,17.31,14.49,21.67,25.53,1.21,3.06,4.08,5.45,6,8.24.86,1.22,2,2.74,1.93,4A13.14,13.14,0,0,0,109.62,114c1.26,1.22,1.94,3.07,2.77,4.7,4.11,8.15,8.06,16.38,12.35,24.44,1.3,2.44,3.09,5.06,5.37,6.43,3.19,1.92,3.49,4.33,3.5,7.49,0,2.56.07,5.45,1.2,7.62,3.91,7.46,8.25,14.7,12.55,21.95,1.51,2.53,3.49,4.78,5.08,7.26,1.12,1.76,2.84,3.75,2.75,5.55-.25,5.21.73,9.52,5.34,12.54a5.67,5.67,0,0,1,1.8,2.36c6.64,14,14.28,27.62,19.56,42.11a272.85,272.85,0,0,0,23.23,49.12c3.47,5.68,8.72,10.28,13.06,15.45.77.91,1.63,2.27,1.51,3.31-1.45,12.75,4.89,22.91,11.22,32.88a30.06,30.06,0,0,0,9.68,8.9c3.24,2,6.09.9,7.18-3.74,9.54-40.7,19.28-81.35,28.89-122a18.74,18.74,0,0,0,.23-5.89c-.55-6.29-2.67-12.83,3.7-17.69a2.91,2.91,0,0,0,.93-2.24c-.72-7.56,0-15.71-2.73-22.5-3.42-8.59-8.92-16.67-14.94-23.77a16.29,16.29,0,0,1-4.36-11.21c-.16-4.74-.35-9.61-4.66-13.2-1.59-1.32-2.43-3.8-3.08-5.92-.71-2.32-.34-5-1.29-7.19-1.32-3-3.46-5.67-5.2-8.52-1.54-2.53-2.44-6-4.66-7.47-3-2-2.88-4.34-3.19-7.17-.45-4.25,0-10.18-2.49-12.29-5.09-4.28-5.55-10.07-8.11-15.16-1.18-2.35-2.47-5-4.46-6.54-5.85-4.59-11.91-9-18.18-13-8.53-5.47-17.56-10.2-25.88-16-2.93-2-5.25-3.21-8.83-3-26.28,1.64-52.59,2.77-78.85,4.69C70.68,47.82,50.8,50,30.94,52.27c-9.15,1.07-9.18,1.58-9,11,.05,3.42-.32,7.34,1.17,10.16,4.1,7.75,9.49,14.83,13.61,22.58,3.9,7.35,7.42,13.63,16.35,17.08,6.55,2.54,12.55,4.38,19.38,4.09a45,45,0,0,0,4.5,0c4-.55,5.14,1.34,5.34,5.09,1.22,23.46,2.29,47,4.06,70.38,2.15,28.56,4.81,57.09,7.58,85.6.44,4.51,2.59,8.86,4,13.27.63,2,1.9,3.86,2,5.83,1.23,24.3,2.14,48.62,3.5,72.91.37,6.74-1.69,12.13-4.47,18.24-4.4,9.65-10.73,11.65-20.13,10.75A18.56,18.56,0,0,0,67.54,402c-3.71,2.47-6.3,6.64-9.73,10.47a21.57,21.57,0,0,1,3.27,2.28c1,1,2.57,2.43,2.43,3.46-.9,6.27,1.26,11,6.43,14.43.66.44,1,1.36,1.57,1.92,1.75,1.63,3.57,3.19,5.36,4.78,4.37,6.85,7.57,14.79,18.48,13.52.93-.11,2.05,2.09,3.22,3,1.38,1.11,3,3,4.38,2.88,11.28-.64,22.59-1.37,33.8-2.74,3.37-.41,6.47-2.95,9.69-4.52,1.8-.89,3.51-2.38,5.38-2.59,8.94-1,17.94-1.47,26.86-2.62,8.32-1.06,13.71-12.81,10.29-19.51-4.05-7.93-8.87-15.48-13.57-23.06-1.16-1.86-3.15-3.2-4.63-4.65-1.94-3.66-3.21-8.05-6.07-10.77-2-1.95-3-3.39-3.13-6q-3.06-48.65-6.29-97.28c-1-15-2.16-29.92-3.25-44.88-.26-3.53,0-6.69,5-6.91a14.7,14.7,0,0,1,.52,3.53c-.61,5.25,1.24,9.31,4.34,13.67,3.88,5.46,6.2,12,9.31,18.05,1.65,3.21,2.86,7.2,5.51,9.21,2.84,2.17,3.06,4.32,3.06,7.15,0,3.28-.59,6.7,3.34,8.64.91.45,1.07,2.34,1.67,3.52,4,7.82,7.72,15.84,12.27,23.33,2.55,4.21,5.46,7.93,4.63,13.19-.09.63-.08,1.75.24,1.91,5.58,2.74,5.23,9.1,8.23,13.41,2.11,3,3.4,6.61,5.46,9.67,3.57,5.3,7.5,10.36,11.2,15.58,1.1,1.55,2.8,3.28,2.78,4.91-.09,5.61-.23,10.82,7.25,10.16.62,4.12.16,8.13,1.82,10.81,8.17,13.15,16.87,25.95,25.47,38.83a5,5,0,0,0,3,2.22c9.94.94,18.86-.71,25.24-9.6,1.74-2.43,4.7-4,7.1-5.93l1.37.86c6.36-83.86,25.5-165.63,39.64-248.3a14.35,14.35,0,0,1,2.07,4.58c3.7,13.66,7.53,27.29,11,41,2.37,9.34,5.13,18.71,6.2,28.24,3.22,28.81,5.75,57.7,8.46,86.57,1.78,19.07,3.26,38.17,5.19,57.23.59,5.85-1.84,7.92-7.17,9.54C345,411.65,324,418.63,303,425.4Z"/>
        <path d="M303,425.4c21.07-6.77,42.08-13.75,63.25-20.18,5.33-1.62,7.76-3.69,7.17-9.54-1.93-19.06-3.41-38.16-5.19-57.23-2.71-28.87-5.24-57.76-8.46-86.57-1.07-9.53-3.83-18.9-6.2-28.24-3.48-13.72-7.31-27.35-11-41a14.35,14.35,0,0,0-2.07-4.58c-14.14,82.67-33.28,164.44-39.64,248.3l-1.37-.86c-2.4,1.95-5.36,3.5-7.1,5.93C286,440.31,277,442,267.1,441a5,5,0,0,1-3-2.22c-8.6-12.88-17.3-25.68-25.47-38.83-1.66-2.68-1.2-6.69-1.82-10.81-7.48.66-7.34-4.55-7.25-10.16,0-1.63-1.68-3.36-2.78-4.91-3.7-5.22-7.63-10.28-11.2-15.58-2.06-3.06-3.35-6.64-5.46-9.67-3-4.31-2.65-10.67-8.23-13.41-.32-.16-.33-1.28-.24-1.91.83-5.26-2.08-9-4.63-13.19-4.55-7.49-8.24-15.51-12.27-23.33-.6-1.18-.76-3.07-1.67-3.52-3.93-1.94-3.35-5.36-3.34-8.64,0-2.83-.22-5-3.06-7.15-2.65-2-3.86-6-5.51-9.21-3.11-6-5.43-12.59-9.31-18.05-3.1-4.36-4.95-8.42-4.34-13.67a14.7,14.7,0,0,0-.52-3.53c-5,.22-5.28,3.38-5,6.91,1.09,15,2.26,29.92,3.25,44.88q3.24,48.63,6.29,97.28c.17,2.62,1.08,4.06,3.13,6,2.86,2.72,4.13,7.11,6.07,10.77,1.48,1.45,3.47,2.79,4.63,4.65,4.7,7.58,9.52,15.13,13.57,23.06,3.42,6.7-2,18.45-10.29,19.51-8.92,1.15-17.92,1.58-26.86,2.62-1.87.21-3.58,1.7-5.38,2.59-3.22,1.57-6.32,4.11-9.69,4.52-11.21,1.37-22.52,2.1-33.8,2.74-1.41.08-3-1.77-4.38-2.88-1.17-.94-2.29-3.14-3.22-3-10.91,1.27-14.11-6.67-18.48-13.52-1.79-1.59-3.61-3.15-5.36-4.78-.6-.56-.91-1.48-1.57-1.92-5.17-3.48-7.33-8.16-6.43-14.43.14-1-1.43-2.44-2.43-3.46a21.57,21.57,0,0,0-3.27-2.28c3.43-3.83,6-8,9.73-10.47a18.56,18.56,0,0,1,11.25-2.76c9.4.9,15.73-1.1,20.13-10.75,2.78-6.11,4.84-11.5,4.47-18.24-1.36-24.29-2.27-48.61-3.5-72.91-.1-2-1.37-3.87-2-5.83-1.42-4.41-3.57-8.76-4-13.27-2.77-28.51-5.43-57-7.58-85.6-1.77-23.43-2.84-46.92-4.06-70.38-.2-3.75-1.33-5.64-5.34-5.09a45,45,0,0,1-4.5,0c-6.83.29-12.83-1.55-19.38-4.09-8.93-3.45-12.45-9.73-16.35-17.08-4.12-7.75-9.51-14.83-13.61-22.58-1.49-2.82-1.12-6.74-1.17-10.16-.13-9.45-.1-10,9.05-11C50.8,50,70.68,47.82,90.61,46.36c26.26-1.92,52.57-3,78.85-4.69,3.58-.23,5.9.95,8.83,3,8.32,5.77,17.35,10.5,25.88,16,6.27,4,12.33,8.38,18.18,13,2,1.56,3.28,4.19,4.46,6.54,2.56,5.09,3,10.88,8.11,15.16,2.52,2.11,2,8,2.49,12.29.31,2.83.2,5.16,3.19,7.17,2.22,1.5,3.12,4.94,4.66,7.47,1.74,2.85,3.88,5.5,5.2,8.52.95,2.16.58,4.87,1.29,7.19.65,2.12,1.49,4.6,3.08,5.92,4.31,3.59,4.5,8.46,4.66,13.2a16.29,16.29,0,0,0,4.36,11.21c6,7.1,11.52,15.18,14.94,23.77,2.71,6.79,2,14.94,2.73,22.5a2.91,2.91,0,0,1-.93,2.24c-6.37,4.86-4.25,11.4-3.7,17.69a18.74,18.74,0,0,1-.23,5.89c-9.61,40.67-19.35,81.32-28.89,122-1.09,4.64-3.94,5.71-7.18,3.74a30.06,30.06,0,0,1-9.68-8.9c-6.33-10-12.67-20.13-11.22-32.88.12-1-.74-2.4-1.51-3.31-4.34-5.17-9.59-9.77-13.06-15.45a272.85,272.85,0,0,1-23.23-49.12C176.61,242,169,228.33,162.33,214.34a5.67,5.67,0,0,0-1.8-2.36c-4.61-3-5.59-7.33-5.34-12.54.09-1.8-1.63-3.79-2.75-5.55-1.59-2.48-3.57-4.73-5.08-7.26-4.3-7.25-8.64-14.49-12.55-21.95-1.13-2.17-1.2-5.06-1.2-7.62,0-3.16-.31-5.57-3.5-7.49-2.28-1.37-4.07-4-5.37-6.43-4.29-8.06-8.24-16.29-12.35-24.44-.83-1.63-1.51-3.48-2.77-4.7a13.14,13.14,0,0,1-4.17-11.19c.1-1.3-1.07-2.82-1.93-4-2-2.79-4.84-5.18-6-8.24-4.36-11-13-18.32-21.67-25.53-3.36-2.8-9.2-2-11.17-7.26-.14-.37-1.55-.41-2.36-.37-8.3.45-16.61.86-24.89,1.54-1.25.1-2.38,1.58-3.57,2.42,1.2,1.21,2.38,3.4,3.61,3.44,5.79.18,11.6-.23,17.41-.45,1.44,0,3.23-.78,4.27-.18,14.67,8.48,26.56,19.25,28.22,37.44.85,9.28.76,18.65,1.56,27.94.86,10,2.36,19.85,7.88,28.62.9,1.43,1,3.48,1.14,5.26q2.88,45.91,5.66,91.82,3.94,66.38,7.77,132.76c.44,7.59-.31,8.6-7.69,10.63-1,.27-1.93.41-2.89.61l1,1.15c-1.44,1.64-2.59,4.14-4.36,4.72-3.56,1.17-7.52,1.06-11.21,1.92-1.54.35-2.82,1.81-4.22,2.77,1.34,1,2.71,2.93,4,2.88,24.64-1,49.27-2.24,73.91-3.38,2.69-.12,4.08-1,3.46-4-.54-2.54-1.31-4.17-4.61-3.75a153.77,153.77,0,0,1-16.9,1.19c-10.07.18-17.85-7.35-18.38-17.45-.3-5.49-.45-11-.9-16.47-.57-7.05-1.17-13.83-4.36-20.68-3-6.4-3.08-14.21-4-21.46-.82-6.1-1-12.29-1.62-18.42s-.86-12.27,3.79-17.41c.75-.83.74-2.85.37-4.11-6.44-21.9-8.3-44.52-10.32-67.07-1.82-20.24-2.7-40.56-4-60.84-.19-2.94.24-6.28-4.49-6.16-.69,0-2-2.06-2.06-3.19q-.27-10.76,0-21.5c.13-5.58,4.43-4.64,8-4.91,4.26-.32,4,2.48,3.85,5.21-.18,4.62-.76,9.28,5,11.42,1.12.42,2.11,2.26,2.42,3.61,1.43,6.22,5.54,10.74,9,15.78,4.19,6,8.49,12.36,10.72,19.22,1.81,5.56,2.62,10.57,6.67,15.78,6.59,8.49,10.57,19.05,15.33,28.9,5.86,12.14,11.39,24.43,17.08,36.65.42.9.9,2.39,1.53,2.48,5.75.9,4.41,5.23,4.32,8.8s.41,6,3.57,8.48c2.42,1.86,3.78,5.39,5,8.42,4.1,9.83,7.93,19.77,11.88,29.67.43,1.08.69,2.63,1.51,3.09,10.61,5.92,13.23,17.13,17.75,27,2.43,5.28,3.82,11,9,14.57a2.7,2.7,0,0,1,1.12,2.08c-2.05,9.64,7.84,13.74,10.06,21.62,1.34,4.71,7.93,3.68,10-2,2.43-6.66,3.65-13.78,5.13-20.75.57-2.66-.35-5.76,3.78-6.47.77-.13,1.43-2.38,1.7-3.73q7.4-36.74,14.66-73.5,3.88-19.61,7.76-39.22a5.39,5.39,0,0,1,.68-2.38c5.66-6.53,3.88-14.42,4.05-21.93.07-2.77.11-5.23,3.49-6.38,1.08-.36,2.07-2.39,2.23-3.76.35-3,.05-6,.17-9,.05-1.1.34-3,.85-3.14,4.4-1,3.4-4.44,3.22-7.19A85.22,85.22,0,0,1,301.67,154c1.09-3.34,1-7.07,1.48-11.16,8.39-1.92,2.41-9.83,5.13-14.9,9.15,1.86,15.54,8.15,23.08,13.86Q321.2,105,311,68a6.35,6.35,0,0,0-1,.46c1.14,12.9-5.54,24.49-6.24,37.08,0,1-.23,2.56-.77,2.76-4.84,1.84-3.34,5.92-3.33,9.3a31.07,31.07,0,0,1-3.39,15.16c-2.13,4.15-1,10.05-1,15.18,0,3.73.07,7.29-5.37,7.28.63,3.92,1.36,7.32,1.67,10.75.23,2.6-.21,5.1-3.77,5.26s-4.31-2-4.36-4.76c-.08-4.16-.22-8.34.09-12.49.1-1.37,1.32-3.61,2.35-3.81,4-.8,4-3.44,3.74-6.39-.45-5.45-1-10.89-1.45-16.65,4.8-1.12,5.43-4.43,5.25-8.65-.26-6.43-.24-12.73,2.55-19,2-4.59,1.93-10.09,3.11-15.11.43-1.85,1.87-3.44,2.73-5.21a16.49,16.49,0,0,0,1.49-3.92c.93-4.58-2.41-10.22,3.8-13.6.91-.49.39-3.77.4-5.76.11-14.06.08-14.29,14.29-15.49s28.6-1.92,42.9-2.8c2.54-.16,4.72-.08,5.69-3.47.38-1.32,3.35-2.56,5.23-2.7,24.93-1.83,49.88-3.48,74.82-5.11,14.8-1,29.6-1.92,44.42-2.58,2.06-.09,4.25,1.47,6.27,2.48,1,.5,1.65,1.8,2.67,2.21,6.46,2.65,8.21,7.92,9.55,14.32,3.14,15,7,29.83,11,44.63,1.1,4.09-.1,5.94-3.61,7.17-8.8,3.08-17.51,6.44-26.44,9.1-3.92,1.17-4.73,2.92-4.41,6.71q5.06,60,9.84,120.08,4.62,57,9.14,114.11a14.68,14.68,0,0,0,3.43,8.85,26.63,26.63,0,0,1,5,12.26c1.39,9,6.27,15.92,11.3,23,6,8.52,11.74,17.29,17.62,25.93.64.94,1.47,1.75,2.16,2.66.92,1.21,1.79,2.46,2.68,3.69-1.4.73-2.75,2-4.21,2.12-11.6,1.15-23.21,2.76-34.83,3q-99.74,1.8-199.46,2.91c-3.2,0-6.41-1.59-9.62-2.44C302.93,426.12,303,425.76,303,425.4ZM379.65,410l1.17.06c1.08-2.56,1.8-5.37,3.31-7.64,7.58-11.32,8.15-23.32,4.66-36.12-2.49-9.14-4.14-18.52-6.16-27.78.11,16.31,1.22,32.38,2.35,48.46.24,3.37.75,6.73-3.82,7.9-.69.17-1.41,1.77-1.44,2.74C379.56,401.7,379.65,405.83,379.65,410ZM348.73,137.29c-5.8,14.9-7.07,29.38,4.14,43.31C351.45,165.73,350.09,151.51,348.73,137.29Z"/>
        <path class="cls-1" d="M379.65,410c0-4.13-.09-8.26.07-12.38,0-1,.75-2.57,1.44-2.74,4.57-1.17,4.06-4.53,3.82-7.9-1.13-16.08-2.24-32.15-2.35-48.46,2,9.26,3.67,18.64,6.16,27.78,3.49,12.8,2.92,24.8-4.66,36.12-1.51,2.27-2.23,5.08-3.31,7.64Z"/>
        <path class="cls-1" d="M348.73,137.29c1.36,14.22,2.72,28.44,4.14,43.31C341.66,166.67,342.93,152.19,348.73,137.29Z"/>
      </g>
    </g>
  </g>
</svg>
